<svg width="19" height="19" viewBox="0 0 19 19" fill="none" xmlns="http://www.w3.org/2000/svg">
<path d="M17.9892 16.1983C18.2269 16.4361 18.3605 16.7585 18.3605 17.0948C18.3605 17.431 18.2269 17.7535 17.9892 17.9913C17.7514 18.229 17.4289 18.3626 17.0927 18.3626C16.7564 18.3626 16.434 18.229 16.1962 17.9913L9.5 11.2929L2.80168 17.9892C2.56392 18.2269 2.24144 18.3605 1.9052 18.3605C1.56895 18.3605 1.24647 18.2269 1.00871 17.9892C0.770949 17.7514 0.637375 17.4289 0.637375 17.0927C0.637375 16.7564 0.770949 16.4339 1.00871 16.1962L7.70703 9.49997L1.01082 2.80165C0.773058 2.56389 0.639484 2.24141 0.639484 1.90517C0.639484 1.56892 0.773058 1.24644 1.01082 1.00868C1.24858 0.77092 1.57106 0.637346 1.9073 0.637346C2.24355 0.637346 2.56603 0.77092 2.80379 1.00868L9.5 7.707L16.1983 1.00763C16.4361 0.769865 16.7586 0.636291 17.0948 0.636292C17.431 0.636292 17.7535 0.769865 17.9913 1.00763C18.229 1.24539 18.3626 1.56786 18.3626 1.90411C18.3626 2.24036 18.229 2.56283 17.9913 2.8006L11.293 9.49997L17.9892 16.1983Z" fill="#676E7E"/>
</svg>
